<svg t="1688654959687" class="icon" viewBox="0 0 1024 1024" version="1.1" xmlns="http://www.w3.org/2000/svg" p-id="1564" width="200" height="200"><path d="M868.48 104.96H155.52a32 32 0 0 0-32 32v538.24a32 32 0 0 0 32 32h712.96a32 32 0 0 0 32-32V136.96a32 32 0 0 0-32-32z m-32 64V390.4H187.52V168.96zM187.52 643.2V422.4h648.96v221.44z" fill="#1B213F" p-id="1565"></path><path d="M252.8 232.96h32v74.88h-32zM334.72 232.96h32v74.88h-32zM252.8 502.4h32v74.88h-32zM334.72 502.4h32v74.88h-32zM868.48 853.12H600.96a94.72 94.72 0 0 0-56.96-56.96v-53.76h-64v53.76a94.72 94.72 0 0 0-56.96 56.96H155.52a32 32 0 1 0 0 64h267.52a94.08 94.08 0 0 0 177.92 0h267.52a32 32 0 0 0 0-64zM512 915.84a30.72 30.72 0 1 1 30.72-30.72 30.72 30.72 0 0 1-30.72 30.72z" fill="#1B213F" p-id="1566"></path></svg>